<svg xmlns="http://www.w3.org/2000/svg" width="485" height="538" viewBox="0 0 485 538" fill="none" aria-hidden="true">
	<g filter="url(#filter0_f)">
		<path
			d="M86.7554 205.703C86.7554 139.277 42.4609 81.2332 20.3137 60.5145C-83.6202 -55.7316 236.249 6.89895 414.218 151.613C592.187 296.328 397.608 392.172 236.249 512.688C74.8908 633.204 86.7554 288.736 86.7554 205.703Z"
			fill="url(#paint0_linear)" transform="translate(120 130) scale(0.3)" />
		<path
			d="M86.7554 205.703C86.7554 139.277 42.4609 81.2332 20.3137 60.5145C-83.6202 -55.7316 236.249 6.89895 414.218 151.613C592.187 296.328 397.608 392.172 236.249 512.688C74.8908 633.204 86.7554 288.736 86.7554 205.703Z"
			fill="url(#paint1_linear)" transform="translate(120 260) rotate(90 100 130) scale(0.3)" />
	</g>
	<defs>
		<filter id="filter0_f" x="0" y="0" width="485" height="538" filterUnits="userSpaceOnUse"
			color-interpolation-filters="sRGB">
			<feFlood flood-opacity="0" result="BackgroundImageFix" />
			<feBlend mode="normal" in="SourceGraphic" in2="BackgroundImageFix" result="shape" />
			<feGaussianBlur stdDeviation="50" />
		</filter>
		<linearGradient id="paint0_linear" x1="0" y1="200" x2="480" y2="430" gradientUnits="userSpaceOnUse">
			<stop stop-color="#5E8778" />
			<stop stop-color="#78FF86" offset="1" />
		</linearGradient>
		<linearGradient id="paint1_linear" x1="0" y1="200" x2="480" y2="430" gradientUnits="userSpaceOnUse">
			<stop stop-color="#575EFF" />
			<stop stop-color="#E478FF" offset="1" />
		</linearGradient>
	</defs>
</svg>
